# xmcd CD database file
#
# Track frame offsets:
#	150
#	7285
#	24540
#	36757
#	49540
#	59500
#	69372
#	79705
#	90005
#	103570
#	114935
#	126990
#	142432
#	152522
#	165107
#	183972
#	193695
#	209947
#
# Disc length: 2921 seconds
#
# Revision: 0
# Processed by: cddbd v1.4PL0 Copyright (c) Steve Scherf et al.
# Submitted via: CDex 1.40Beta9
#
DISCID=f00b6712
DTITLE=Jim and Eve Collection - "Jim and Eve Collection"
DYEAR=1993
DGENRE=Country
TTITLE0=1. Waarom Huil Je Toch Nonna Manis
TTITLE1=2. Streamlined Cannonball
TTITLE2=3. Somebody
TTITLE3=4. Shennan Doah Valley
TTITLE4=5. I Won't Forget You
TTITLE5=6. Changing Partners
TTITLE6=7. Cigarettes Coffee Blues
TTITLE7=8. Honky Tonk Man
TTITLE8=9. I Wish That I Could Fall In Love Today
TTITLE9=10. Smokey Mountain Boogie
TTITLE10=11. I'm Bluer Than Anyone Can be
TTITLE11=12. Put Your Arms Around Me
TTITLE12=13. I'm Ready
TTITLE13=14. Mom And Dad Waltz
TTITLE14=15. Rindu
TTITLE15=16. I Go Ape
TTITLE16=17. Tukamg Becak
TTITLE17=18. Good Good Loving
EXTD=YEAR: 1993 ID3G: 2
EXTT0=
EXTT1=
EXTT2=
EXTT3=
EXTT4=
EXTT5=
EXTT6=
EXTT7=
EXTT8=
EXTT9=
EXTT10=
EXTT11=
EXTT12=
EXTT13=
EXTT14=
EXTT15=
EXTT16=
EXTT17=
PLAYORDER=
